<svg xmlns="http://www.w3.org/2000/svg" width="1600" height="1240" viewBox="0 0 1600 1240">
  <defs>
    <filter id="softShadow" x="-10%" y="-10%" width="120%" height="130%">
      <feDropShadow dx="0" dy="8" stdDeviation="10" flood-color="#0F261B" flood-opacity="0.12"/>
    </filter>
    <style>
      .page { fill: #F7F3EA; }
      .panel { fill: #FFFFFF; stroke: #DED6C7; stroke-width: 1.5; }
      .mutedPanel { fill: #FBF7F1; stroke: #DED6C7; stroke-width: 1.5; }
      .title { font-family: Arial, Helvetica, sans-serif; font-size: 34px; font-weight: 900; fill: #0F3D2E; }
      .sectionTitle { font-family: Arial, Helvetica, sans-serif; font-size: 17px; font-weight: 900; fill: #14251D; letter-spacing: 1.4px; }
      .subtle { font-family: Arial, Helvetica, sans-serif; font-size: 13px; font-weight: 700; fill: #6B7280; }
      .smallLabel { font-family: Arial, Helvetica, sans-serif; font-size: 10px; font-weight: 900; fill: #6B7280; letter-spacing: 1px; }
      .cardTitle { font-family: Arial, Helvetica, sans-serif; font-size: 13px; font-weight: 900; fill: #14251D; }
      .cardMeta { font-family: Arial, Helvetica, sans-serif; font-size: 10px; font-weight: 800; fill: #5F6B62; }
      .chipText { font-family: Arial, Helvetica, sans-serif; font-size: 9px; font-weight: 900; letter-spacing: .4px; }
      .day { font-family: Arial, Helvetica, sans-serif; font-size: 13px; font-weight: 900; fill: #14251D; }
      .date { font-family: Arial, Helvetica, sans-serif; font-size: 10px; font-weight: 800; fill: #6B7280; }
      .catIcon { font-family: Arial, Helvetica, sans-serif; font-size: 12px; font-weight: 900; fill: white; }
    </style>
  </defs>

  <rect class="page" x="0" y="0" width="1600" height="1240"/>

  <rect x="36" y="34" width="1528" height="96" rx="18" class="panel" filter="url(#softShadow)"/>
  <text x="68" y="82" class="title">Calendar Color Stress Test</text>
  <text x="68" y="110" class="subtle">Mockup showing every operating category with every status/risk tone. Category = icon/left accent. Status/risk = event background and status chip.</text>
  <text x="1298" y="75" class="smallLabel">JDT COMMAND CENTER</text>
  <rect x="1298" y="88" width="226" height="22" rx="11" fill="#EAF3EE" stroke="#5F917E"/>
  <text x="1314" y="103" class="chipText" fill="#0F3D2E">CALENDAR GRID VIEW</text>

  <rect x="36" y="156" width="1034" height="482" rx="18" class="panel" filter="url(#softShadow)"/>
  <text x="68" y="193" class="sectionTitle">WEEK VIEW WITH MIXED CATEGORY + RISK EVENTS</text>
  <text x="68" y="217" class="subtle">This is the kind of density the calendar may reach once crew, freight, equipment, relocation, and nursery items all land on the same schedule.</text>

  <g transform="translate(64 246)">
    <rect x="0" y="0" width="176" height="360" rx="12" fill="#FBF7F1" stroke="#DED6C7"/>
    <rect x="188" y="0" width="176" height="360" rx="12" fill="#FBF7F1" stroke="#DED6C7"/>
    <rect x="376" y="0" width="176" height="360" rx="12" fill="#FBF7F1" stroke="#DED6C7"/>
    <rect x="564" y="0" width="176" height="360" rx="12" fill="#FBF7F1" stroke="#DED6C7"/>
    <rect x="752" y="0" width="176" height="360" rx="12" fill="#FBF7F1" stroke="#DED6C7"/>

    <text x="18" y="29" class="day">MON</text><text x="18" y="47" class="date">JUN 08</text>
    <text x="206" y="29" class="day">TUE</text><text x="206" y="47" class="date">JUN 09</text>
    <text x="394" y="29" class="day">WED</text><text x="394" y="47" class="date">JUN 10</text>
    <text x="582" y="29" class="day">THU</text><text x="582" y="47" class="date">JUN 11</text>
    <text x="770" y="29" class="day">FRI</text><text x="770" y="47" class="date">JUN 12</text>

    <!-- Monday events -->
    <g transform="translate(14 68)">
      <rect x="0" y="0" width="148" height="62" rx="8" fill="#FBE3DE" stroke="#E59A8A"/>
      <rect x="0" y="0" width="6" height="62" rx="3" fill="#0F3D2E"/>
      <circle cx="22" cy="22" r="12" fill="#0F3D2E"/><text x="18" y="26" class="catIcon">R</text>
      <text x="42" y="21" class="cardTitle">Boca West</text>
      <text x="42" y="38" class="cardMeta">Root prune blocked</text>
      <rect x="42" y="44" width="76" height="14" rx="5" fill="#FBE3DE" stroke="#E59A8A"/><text x="49" y="55" class="chipText" fill="#8F241A">BLOCKED</text>
    </g>
    <g transform="translate(14 144)">
      <rect x="0" y="0" width="148" height="62" rx="8" fill="#FFF4C2" stroke="#EAB308"/>
      <rect x="0" y="0" width="6" height="62" rx="3" fill="#8A5A2B"/>
      <circle cx="22" cy="22" r="12" fill="#8A5A2B"/><text x="18" y="26" class="catIcon">C</text>
      <text x="42" y="21" class="cardTitle">Crew 3</text>
      <text x="42" y="38" class="cardMeta">Needs dispatch</text>
      <rect x="42" y="44" width="76" height="14" rx="5" fill="#FFF4C2" stroke="#EAB308"/><text x="49" y="55" class="chipText" fill="#6B5200">SCHEDULED</text>
    </g>
    <g transform="translate(14 220)">
      <rect x="0" y="0" width="148" height="62" rx="8" fill="#DFF6FF" stroke="#22B8E6"/>
      <rect x="0" y="0" width="6" height="62" rx="3" fill="#1E7EA2"/>
      <circle cx="22" cy="22" r="12" fill="#1E7EA2"/><text x="18" y="26" class="catIcon">F</text>
      <text x="42" y="21" class="cardTitle">Semi #1</text>
      <text x="42" y="38" class="cardMeta">At pickup</text>
      <rect x="42" y="44" width="72" height="14" rx="5" fill="#DFF6FF" stroke="#22B8E6"/><text x="49" y="55" class="chipText" fill="#075985">ACTIVE</text>
    </g>

    <!-- Tuesday events -->
    <g transform="translate(202 68)">
      <rect x="0" y="0" width="148" height="62" rx="8" fill="#E4F6DA" stroke="#77B65B"/>
      <rect x="0" y="0" width="6" height="62" rx="3" fill="#7C3AED"/>
      <circle cx="22" cy="22" r="12" fill="#7C3AED"/><text x="18" y="26" class="catIcon">E</text>
      <text x="42" y="21" class="cardTitle">Komatsu 500</text>
      <text x="42" y="38" class="cardMeta">Available</text>
      <rect x="42" y="44" width="62" height="14" rx="5" fill="#E4F6DA" stroke="#77B65B"/><text x="49" y="55" class="chipText" fill="#236B2E">READY</text>
    </g>
    <g transform="translate(202 144)">
      <rect x="0" y="0" width="148" height="62" rx="8" fill="#DFF6FF" stroke="#22B8E6"/>
      <rect x="0" y="0" width="6" height="62" rx="3" fill="#63B52F"/>
      <circle cx="22" cy="22" r="12" fill="#63B52F"/><text x="18" y="26" class="catIcon">N</text>
      <text x="42" y="21" class="cardTitle">Propagation</text>
      <text x="42" y="38" class="cardMeta">Watering active</text>
      <rect x="42" y="44" width="72" height="14" rx="5" fill="#DFF6FF" stroke="#22B8E6"/><text x="49" y="55" class="chipText" fill="#075985">ACTIVE</text>
    </g>

    <!-- Wednesday events -->
    <g transform="translate(390 68)">
      <rect x="0" y="0" width="148" height="62" rx="8" fill="#FFF4C2" stroke="#EAB308"/>
      <rect x="0" y="0" width="6" height="62" rx="3" fill="#7C3AED"/>
      <circle cx="22" cy="22" r="12" fill="#7C3AED"/><text x="18" y="26" class="catIcon">E</text>
      <text x="42" y="21" class="cardTitle">Lowboy</text>
      <text x="42" y="38" class="cardMeta">Inspection due</text>
      <rect x="42" y="44" width="68" height="14" rx="5" fill="#FFF4C2" stroke="#EAB308"/><text x="49" y="55" class="chipText" fill="#6B5200">WATCH</text>
    </g>
    <g transform="translate(390 144)">
      <rect x="0" y="0" width="148" height="62" rx="8" fill="#E4F6DA" stroke="#77B65B"/>
      <rect x="0" y="0" width="6" height="62" rx="3" fill="#0F3D2E"/>
      <circle cx="22" cy="22" r="12" fill="#0F3D2E"/><text x="18" y="26" class="catIcon">R</text>
      <text x="42" y="21" class="cardTitle">Tree 1003</text>
      <text x="42" y="38" class="cardMeta">Ready to move</text>
      <rect x="42" y="44" width="62" height="14" rx="5" fill="#E4F6DA" stroke="#77B65B"/><text x="49" y="55" class="chipText" fill="#236B2E">READY</text>
    </g>

    <!-- Thursday events -->
    <g transform="translate(578 68)">
      <rect x="0" y="0" width="148" height="62" rx="8" fill="#DFF6FF" stroke="#22B8E6"/>
      <rect x="0" y="0" width="6" height="62" rx="3" fill="#8A5A2B"/>
      <circle cx="22" cy="22" r="12" fill="#8A5A2B"/><text x="18" y="26" class="catIcon">C</text>
      <text x="42" y="21" class="cardTitle">Carlos</text>
      <text x="42" y="38" class="cardMeta">In progress</text>
      <rect x="42" y="44" width="72" height="14" rx="5" fill="#DFF6FF" stroke="#22B8E6"/><text x="49" y="55" class="chipText" fill="#075985">ACTIVE</text>
    </g>
    <g transform="translate(578 144)">
      <rect x="0" y="0" width="148" height="62" rx="8" fill="#FBE3DE" stroke="#E59A8A"/>
      <rect x="0" y="0" width="6" height="62" rx="3" fill="#1E7EA2"/>
      <circle cx="22" cy="22" r="12" fill="#1E7EA2"/><text x="18" y="26" class="catIcon">F</text>
      <text x="42" y="21" class="cardTitle">Delivery</text>
      <text x="42" y="38" class="cardMeta">Delayed</text>
      <rect x="42" y="44" width="72" height="14" rx="5" fill="#FBE3DE" stroke="#E59A8A"/><text x="49" y="55" class="chipText" fill="#8F241A">DELAYED</text>
    </g>

    <!-- Friday events -->
    <g transform="translate(766 68)">
      <rect x="0" y="0" width="148" height="62" rx="8" fill="#FFF4C2" stroke="#EAB308"/>
      <rect x="0" y="0" width="6" height="62" rx="3" fill="#63B52F"/>
      <circle cx="22" cy="22" r="12" fill="#63B52F"/><text x="18" y="26" class="catIcon">N</text>
      <text x="42" y="21" class="cardTitle">Ranch Oaks</text>
      <text x="42" y="38" class="cardMeta">Needs photos</text>
      <rect x="42" y="44" width="68" height="14" rx="5" fill="#FFF4C2" stroke="#EAB308"/><text x="49" y="55" class="chipText" fill="#6B5200">NEEDS</text>
    </g>
    <g transform="translate(766 144)">
      <rect x="0" y="0" width="148" height="62" rx="8" fill="#E4F6DA" stroke="#77B65B"/>
      <rect x="0" y="0" width="6" height="62" rx="3" fill="#8A5A2B"/>
      <circle cx="22" cy="22" r="12" fill="#8A5A2B"/><text x="18" y="26" class="catIcon">C</text>
      <text x="42" y="21" class="cardTitle">Crew 1</text>
      <text x="42" y="38" class="cardMeta">Complete</text>
      <rect x="42" y="44" width="72" height="14" rx="5" fill="#E4F6DA" stroke="#77B65B"/><text x="49" y="55" class="chipText" fill="#236B2E">COMPLETE</text>
    </g>
  </g>

  <rect x="1094" y="156" width="470" height="482" rx="18" class="panel" filter="url(#softShadow)"/>
  <text x="1126" y="193" class="sectionTitle">VISUAL LEGEND</text>
  <text x="1126" y="217" class="subtle">Category colors show type. Status colors show condition.</text>

  <g transform="translate(1126 246)">
    <text x="0" y="0" class="smallLabel">CATEGORIES</text>
    <g transform="translate(0 20)">
      <rect x="0" y="0" width="180" height="34" rx="9" fill="#EAF3EE" stroke="#0F3D2E"/><circle cx="18" cy="17" r="10" fill="#0F3D2E"/><text x="14" y="21" class="catIcon">R</text><text x="38" y="22" class="cardTitle">Relocation</text>
      <rect x="204" y="0" width="180" height="34" rx="9" fill="#F6EEE6" stroke="#8A5A2B"/><circle cx="222" cy="17" r="10" fill="#8A5A2B"/><text x="218" y="21" class="catIcon">C</text><text x="242" y="22" class="cardTitle">Crew</text>
      <rect x="0" y="48" width="180" height="34" rx="9" fill="#EAF8FC" stroke="#1E7EA2"/><circle cx="18" cy="65" r="10" fill="#1E7EA2"/><text x="14" y="69" class="catIcon">F</text><text x="38" y="70" class="cardTitle">Freight</text>
      <rect x="204" y="48" width="180" height="34" rx="9" fill="#F3E8FF" stroke="#7C3AED"/><circle cx="222" cy="65" r="10" fill="#7C3AED"/><text x="218" y="69" class="catIcon">E</text><text x="242" y="70" class="cardTitle">Equipment</text>
      <rect x="0" y="96" width="180" height="34" rx="9" fill="#F1FBEA" stroke="#63B52F"/><circle cx="18" cy="113" r="10" fill="#63B52F"/><text x="14" y="117" class="catIcon">N</text><text x="38" y="118" class="cardTitle">Nursery</text>
    </g>

    <text x="0" y="190" class="smallLabel">STATUS / RISK</text>
    <g transform="translate(0 210)">
      <rect x="0" y="0" width="180" height="34" rx="9" fill="#FBE3DE" stroke="#E59A8A"/><circle cx="18" cy="17" r="7" fill="#C93624"/><text x="38" y="22" class="cardTitle" fill="#8F241A">Stop / Blocked</text>
      <rect x="204" y="0" width="180" height="34" rx="9" fill="#FFF4C2" stroke="#EAB308"/><circle cx="222" cy="17" r="7" fill="#FACC15"/><text x="242" y="22" class="cardTitle" fill="#6B5200">Caution / Scheduled</text>
      <rect x="0" y="48" width="180" height="34" rx="9" fill="#DFF6FF" stroke="#22B8E6"/><circle cx="18" cy="65" r="7" fill="#0EA5E9"/><text x="38" y="70" class="cardTitle" fill="#075985">Active Work</text>
      <rect x="204" y="48" width="180" height="34" rx="9" fill="#E4F6DA" stroke="#77B65B"/><circle cx="222" cy="65" r="7" fill="#33A852"/><text x="242" y="70" class="cardTitle" fill="#236B2E">Ready / Complete</text>
    </g>
  </g>

  <rect x="36" y="668" width="1528" height="520" rx="18" class="panel" filter="url(#softShadow)"/>
  <text x="68" y="704" class="sectionTitle">CATEGORY X STATUS MATRIX</text>
  <text x="68" y="728" class="subtle">Every cell uses the status/risk background and the category accent. This is the collision test.</text>

  <g transform="translate(70 760)">
    <text x="0" y="24" class="smallLabel">CATEGORY</text>
    <text x="210" y="24" class="smallLabel">STOP / BLOCKED</text>
    <text x="520" y="24" class="smallLabel">CAUTION / SCHEDULED</text>
    <text x="830" y="24" class="smallLabel">ACTIVE WORK</text>
    <text x="1140" y="24" class="smallLabel">READY / COMPLETE</text>

    <!-- row labels -->
    <g transform="translate(0 50)">
      <rect x="0" y="0" width="168" height="42" rx="9" fill="#EAF3EE" stroke="#0F3D2E"/><circle cx="20" cy="21" r="11" fill="#0F3D2E"/><text x="16" y="25" class="catIcon">R</text><text x="42" y="26" class="cardTitle">Relocation</text>
      <rect x="0" y="58" width="168" height="42" rx="9" fill="#F6EEE6" stroke="#8A5A2B"/><circle cx="20" cy="79" r="11" fill="#8A5A2B"/><text x="16" y="83" class="catIcon">C</text><text x="42" y="84" class="cardTitle">Crew</text>
      <rect x="0" y="116" width="168" height="42" rx="9" fill="#EAF8FC" stroke="#1E7EA2"/><circle cx="20" cy="137" r="11" fill="#1E7EA2"/><text x="16" y="141" class="catIcon">F</text><text x="42" y="142" class="cardTitle">Freight</text>
      <rect x="0" y="174" width="168" height="42" rx="9" fill="#F3E8FF" stroke="#7C3AED"/><circle cx="20" cy="195" r="11" fill="#7C3AED"/><text x="16" y="199" class="catIcon">E</text><text x="42" y="200" class="cardTitle">Equipment</text>
      <rect x="0" y="232" width="168" height="42" rx="9" fill="#F1FBEA" stroke="#63B52F"/><circle cx="20" cy="253" r="11" fill="#63B52F"/><text x="16" y="257" class="catIcon">N</text><text x="42" y="258" class="cardTitle">Nursery</text>
    </g>

    <!-- matrix cards generated explicitly -->
    <g transform="translate(200 50)">
      <g>
        <rect x="0" y="0" width="270" height="42" rx="9" fill="#FBE3DE" stroke="#E59A8A"/><rect x="0" y="0" width="7" height="42" rx="3.5" fill="#0F3D2E"/><text x="18" y="18" class="cardTitle">Relocation task</text><text x="18" y="33" class="cardMeta">blocked / overdue</text>
        <rect x="310" y="0" width="270" height="42" rx="9" fill="#FFF4C2" stroke="#EAB308"/><rect x="310" y="0" width="7" height="42" rx="3.5" fill="#0F3D2E"/><text x="328" y="18" class="cardTitle">Relocation task</text><text x="328" y="33" class="cardMeta">scheduled / needs review</text>
        <rect x="620" y="0" width="270" height="42" rx="9" fill="#DFF6FF" stroke="#22B8E6"/><rect x="620" y="0" width="7" height="42" rx="3.5" fill="#0F3D2E"/><text x="638" y="18" class="cardTitle">Relocation task</text><text x="638" y="33" class="cardMeta">active / in progress</text>
        <rect x="930" y="0" width="270" height="42" rx="9" fill="#E4F6DA" stroke="#77B65B"/><rect x="930" y="0" width="7" height="42" rx="3.5" fill="#0F3D2E"/><text x="948" y="18" class="cardTitle">Relocation task</text><text x="948" y="33" class="cardMeta">ready / invoiced / paid</text>
      </g>
      <g transform="translate(0 58)">
        <rect x="0" y="0" width="270" height="42" rx="9" fill="#FBE3DE" stroke="#E59A8A"/><rect x="0" y="0" width="7" height="42" rx="3.5" fill="#8A5A2B"/><text x="18" y="18" class="cardTitle">Crew assignment</text><text x="18" y="33" class="cardMeta">blocked / delayed</text>
        <rect x="310" y="0" width="270" height="42" rx="9" fill="#FFF4C2" stroke="#EAB308"/><rect x="310" y="0" width="7" height="42" rx="3.5" fill="#8A5A2B"/><text x="328" y="18" class="cardTitle">Crew assignment</text><text x="328" y="33" class="cardMeta">scheduled / pending</text>
        <rect x="620" y="0" width="270" height="42" rx="9" fill="#DFF6FF" stroke="#22B8E6"/><rect x="620" y="0" width="7" height="42" rx="3.5" fill="#8A5A2B"/><text x="638" y="18" class="cardTitle">Crew assignment</text><text x="638" y="33" class="cardMeta">active / assigned</text>
        <rect x="930" y="0" width="270" height="42" rx="9" fill="#E4F6DA" stroke="#77B65B"/><rect x="930" y="0" width="7" height="42" rx="3.5" fill="#8A5A2B"/><text x="948" y="18" class="cardTitle">Crew assignment</text><text x="948" y="33" class="cardMeta">complete / clear</text>
      </g>
      <g transform="translate(0 116)">
        <rect x="0" y="0" width="270" height="42" rx="9" fill="#FBE3DE" stroke="#E59A8A"/><rect x="0" y="0" width="7" height="42" rx="3.5" fill="#1E7EA2"/><text x="18" y="18" class="cardTitle">Freight move</text><text x="18" y="33" class="cardMeta">urgent / failed stop</text>
        <rect x="310" y="0" width="270" height="42" rx="9" fill="#FFF4C2" stroke="#EAB308"/><rect x="310" y="0" width="7" height="42" rx="3.5" fill="#1E7EA2"/><text x="328" y="18" class="cardTitle">Freight move</text><text x="328" y="33" class="cardMeta">scheduled / missing POD</text>
        <rect x="620" y="0" width="270" height="42" rx="9" fill="#DFF6FF" stroke="#22B8E6"/><rect x="620" y="0" width="7" height="42" rx="3.5" fill="#1E7EA2"/><text x="638" y="18" class="cardTitle">Freight move</text><text x="638" y="33" class="cardMeta">transit / loaded</text>
        <rect x="930" y="0" width="270" height="42" rx="9" fill="#E4F6DA" stroke="#77B65B"/><rect x="930" y="0" width="7" height="42" rx="3.5" fill="#1E7EA2"/><text x="948" y="18" class="cardTitle">Freight move</text><text x="948" y="33" class="cardMeta">delivered / complete</text>
      </g>
      <g transform="translate(0 174)">
        <rect x="0" y="0" width="270" height="42" rx="9" fill="#FBE3DE" stroke="#E59A8A"/><rect x="0" y="0" width="7" height="42" rx="3.5" fill="#7C3AED"/><text x="18" y="18" class="cardTitle">Equipment request</text><text x="18" y="33" class="cardMeta">down / repair hold</text>
        <rect x="310" y="0" width="270" height="42" rx="9" fill="#FFF4C2" stroke="#EAB308"/><rect x="310" y="0" width="7" height="42" rx="3.5" fill="#7C3AED"/><text x="328" y="18" class="cardTitle">Equipment request</text><text x="328" y="33" class="cardMeta">inspection / service</text>
        <rect x="620" y="0" width="270" height="42" rx="9" fill="#DFF6FF" stroke="#22B8E6"/><rect x="620" y="0" width="7" height="42" rx="3.5" fill="#7C3AED"/><text x="638" y="18" class="cardTitle">Equipment request</text><text x="638" y="33" class="cardMeta">in use / at site</text>
        <rect x="930" y="0" width="270" height="42" rx="9" fill="#E4F6DA" stroke="#77B65B"/><rect x="930" y="0" width="7" height="42" rx="3.5" fill="#7C3AED"/><text x="948" y="18" class="cardTitle">Equipment request</text><text x="948" y="33" class="cardMeta">available / good</text>
      </g>
      <g transform="translate(0 232)">
        <rect x="0" y="0" width="270" height="42" rx="9" fill="#FBE3DE" stroke="#E59A8A"/><rect x="0" y="0" width="7" height="42" rx="3.5" fill="#63B52F"/><text x="18" y="18" class="cardTitle">Nursery item</text><text x="18" y="33" class="cardMeta">critical / failed health</text>
        <rect x="310" y="0" width="270" height="42" rx="9" fill="#FFF4C2" stroke="#EAB308"/><rect x="310" y="0" width="7" height="42" rx="3.5" fill="#63B52F"/><text x="328" y="18" class="cardTitle">Nursery item</text><text x="328" y="33" class="cardMeta">watch / needs care</text>
        <rect x="620" y="0" width="270" height="42" rx="9" fill="#DFF6FF" stroke="#22B8E6"/><rect x="620" y="0" width="7" height="42" rx="3.5" fill="#63B52F"/><text x="638" y="18" class="cardTitle">Nursery item</text><text x="638" y="33" class="cardMeta">active / being loaded</text>
        <rect x="930" y="0" width="270" height="42" rx="9" fill="#E4F6DA" stroke="#77B65B"/><rect x="930" y="0" width="7" height="42" rx="3.5" fill="#63B52F"/><text x="948" y="18" class="cardTitle">Nursery item</text><text x="948" y="33" class="cardMeta">available / ready</text>
      </g>
    </g>
  </g>
</svg>
